<?xml version="1.0" encoding="UTF-8"?>
<svg version="1.1" xmlns="http://www.w3.org/2000/svg" width="2000" height="2000">
<path d="M0 0 C660 0 1320 0 2000 0 C2000 660 2000 1320 2000 2000 C1340 2000 680 2000 0 2000 C0 1340 0 680 0 0 Z " fill="#FEFEFE" transform="translate(0,0)"/>
<path d="M0 0 C19.14 0 38.28 0 58 0 C60.23978064 16.79835478 61 31.95511362 61 49 C94.33 49 127.66 49 162 49 C162 67.48 162 85.96 162 105 C130.32 105 98.64 105 66 105 C66.99 122.325 66.99 122.325 68 140 C68 144.62 68 149.24 68 154 C98.69 154 129.38 154 161 154 C161 172.81 161 191.62 161 211 C131.96 211 102.92 211 73 211 C73.33 212.65 73.66 214.3 74 216 C74.18922362 218.36990828 74.34000802 220.74301672 74.46484375 223.1171875 C74.54235607 224.53174064 74.6199132 225.94629132 74.69750977 227.36083984 C74.73659454 228.09759949 74.77567932 228.83435913 74.81594849 229.59344482 C75.39895913 240.53671406 76.04637925 251.46199722 77.0625 262.375 C77.7183154 269.47513457 78.26278136 276.56589025 78.625 283.6875 C78.6650415 284.45304199 78.70508301 285.21858398 78.74633789 286.00732422 C79.04267525 292.35623173 79 298.62355204 79 305 C59.86 305 40.72 305 21 305 C19.34423101 301.68846202 19.69851755 297.96109287 19.5625 294.3125 C19.24513263 286.97676105 18.74780578 279.68514695 18.0625 272.375 C17.2178024 263.16996211 16.56581864 253.95999098 16.00973511 244.73370361 C15.92154554 243.27165439 15.83186201 241.80969433 15.74050903 240.34783936 C15.61108829 238.26340803 15.48823791 236.17868258 15.3671875 234.09375 C15.29612793 232.89427734 15.22506836 231.69480469 15.15185547 230.45898438 C14.93107791 223.97621706 15 217.48652563 15 211 C-17.34 211 -49.68 211 -83 211 C-83 192.19 -83 173.38 -83 154 C-52.31 154 -21.62 154 10 154 C8.515 134.695 8.515 134.695 7 115 C7 111.7 7 108.4 7 105 C-22.7 105 -52.4 105 -83 105 C-83 86.52 -83 68.04 -83 49 C-54.62 49 -26.24 49 3 49 C2.67 47.35 2.34 45.7 2 44 C1.60352273 39.8641915 1.3410726 35.72027269 1.07006836 31.57446289 C0.9399299 29.59937812 0.80110183 27.62487207 0.66210938 25.65039062 C0.53352539 23.72163086 0.53352539 23.72163086 0.40234375 21.75390625 C0.32491943 20.60220947 0.24749512 19.4505127 0.16772461 18.26391602 C-0.07157576 12.18039202 0 6.08822871 0 0 Z " fill="#010101" transform="translate(309,847)"/>
<path d="M0 0 C8.25 0 16.5 0 25 0 C25 17.16 25 34.32 25 52 C19.72 52 14.44 52 9 52 C8.74347656 53.41796875 8.48695313 54.8359375 8.22265625 56.296875 C7.05606475 62.10635779 5.33552033 67.64250725 3.4375 73.25 C2.90914551 74.81536499 2.90914551 74.81536499 2.37011719 76.41235352 C-7.4087604 104.92833597 -20.03481425 133.95330143 -37.01318359 158.96582031 C-37.6727002 159.93874023 -38.3322168 160.91166016 -39.01171875 161.9140625 C-39.62877686 162.79271973 -40.24583496 163.67137695 -40.8815918 164.57666016 C-42.29086119 166.91464202 -42.29086119 166.91464202 -41.32299805 169.1328125 C-39.33185431 171.9429744 -37.2689536 174.68083485 -35.125 177.375 C-34.6403125 177.98714355 -34.155625 178.59928711 -33.65625 179.22998047 C-25.64681156 189.27515118 -17.18368912 198.89974616 -8.45703125 208.32421875 C-6.38605769 210.57957151 -4.36849376 212.86404866 -2.375 215.1875 C4.91587628 223.54954768 13.36814148 232.8993116 23.22776794 238.19700623 C26.0489996 239.89858122 27.94093865 241.41161969 30 244 C31.26756864 249.32982827 31.05110837 254.5638009 30.87890625 259.99609375 C30.86210091 261.55546889 30.84929882 263.11489184 30.84031677 264.67433167 C30.80610039 268.76090813 30.71783523 272.84456343 30.61798096 276.92999268 C30.52558461 281.10592125 30.48473963 285.28232627 30.43945312 289.45898438 C30.34319256 297.6406573 30.18978191 305.81996439 30 314 C24.12038449 311.16304266 19.1534995 306.96490764 14 303 C13.43925781 302.56977539 12.87851562 302.13955078 12.30078125 301.69628906 C-4.50393426 288.76588726 -20.28782319 274.77307315 -35.3125 259.8125 C-36.44220215 258.68980713 -36.44220215 258.68980713 -37.59472656 257.54443359 C-42.26794407 252.85776947 -46.69731251 248.02728218 -51 243 C-51.98498872 241.87049309 -52.97063758 240.74156143 -53.95703125 239.61328125 C-59.86788441 232.79682311 -65.523321 225.85974822 -70.94140625 218.64453125 C-72.54080978 216.58988953 -74.09937371 214.76703594 -76 213 C-76.72703125 213.85980469 -77.4540625 214.71960937 -78.203125 215.60546875 C-93.76489056 233.93621311 -109.99760596 252.17171095 -129 267 C-130.85690747 268.58011808 -132.71091476 270.16364866 -134.5625 271.75 C-152.09359154 286.31048296 -171.28684915 297.9446438 -191.375 308.625 C-192.50603149 309.227677 -192.50603149 309.227677 -193.65991211 309.8425293 C-194.37800049 310.21676025 -195.09608887 310.59099121 -195.8359375 310.9765625 C-196.75705322 311.45730225 -196.75705322 311.45730225 -197.69677734 311.94775391 C-201.06462336 313.48638188 -204.5245198 314.72352451 -208 316 C-208.18552583 307.61163474 -208.32758433 299.22412894 -208.41449738 290.83421803 C-208.45621686 286.93813842 -208.51277585 283.04346406 -208.60351562 279.14819336 C-208.69057259 275.38739466 -208.73829853 271.6279453 -208.75901794 267.86621666 C-208.77377791 266.43272336 -208.80260455 264.99930242 -208.84584045 263.56638527 C-209.17123319 252.3334355 -209.17123319 252.3334355 -206.29252625 249.05606079 C-204.22916688 247.74797948 -202.27946301 246.86333008 -200 246 C-198.78549498 245.3082648 -197.58121912 244.59781385 -196.39453125 243.859375 C-195.81050537 243.51600098 -195.22647949 243.17262695 -194.62475586 242.81884766 C-165.15720709 225.43922641 -138.01793777 202.02906797 -117 175 C-115.39898926 173.12230452 -113.79463127 171.24745955 -112.1875 169.375 C-90.61137287 143.47694678 -76.53794186 113.76804969 -63 83 C-106.23 83 -149.46 83 -194 83 C-194 63.53 -194 44.06 -194 24 C-129.98 24 -65.96 24 0 24 C0 16.08 0 8.16 0 0 Z " fill="#010101" transform="translate(712,836)"/>
<path d="M0 0 C19.47 0 38.94 0 59 0 C59 21.45 59 42.9 59 65 C89.36 65 119.72 65 151 65 C151 84.14 151 103.28 151 123 C120.31 123 89.62 123 58 123 C58.15711007 141.42627373 58.15711007 141.42627373 58.36035156 159.85205078 C58.51279431 180.60576674 57.07196779 200.06719766 48 219 C47.48695313 220.093125 46.97390625 221.18625 46.4453125 222.3125 C32.66657292 249.73812519 8.26684061 268.45580508 -18 283 C-18.93803467 283.52158691 -18.93803467 283.52158691 -19.89501953 284.05371094 C-39.53658883 294.81118277 -65.31678593 307 -88 307 C-88 287.2 -88 267.4 -88 247 C-83.05 246.01 -78.1 245.02 -73 244 C-69.40592958 242.85527842 -65.98610465 241.70137399 -62.5 240.3125 C-61.61127197 239.96437256 -60.72254395 239.61624512 -59.80688477 239.25756836 C-37.55802701 230.34158472 -17.38976026 217.34613837 -7.52587891 194.66040039 C2.04662923 171.86168607 -0.53025604 147.39177804 0 123 C-33.99 123 -67.98 123 -103 123 C-103 103.86 -103 84.72 -103 65 C-69.01 65 -35.02 65 0 65 C0 43.55 0 22.1 0 0 Z " fill="#010101" transform="translate(893,846)"/>
<path d="M0 0 C19.14 0 38.28 0 58 0 C58 32.67 58 65.34 58 99 C108.49 99 158.98 99 211 99 C211 117.81 211 136.62 211 156 C160.51 156 110.02 156 58 156 C58 205.5 58 255 58 306 C38.86 306 19.72 306 0 306 C0 205.02 0 104.04 0 0 Z " fill="#010101" transform="translate(1561,846)"/>
<path d="M0 0 C19.47 0 38.94 0 59 0 C57.81772955 16.55178627 57.81772955 16.55178627 56.875 23 C56.69312134 24.2530896 56.69312134 24.2530896 56.50756836 25.53149414 C55.17502447 34.35013657 53.60980466 43.13006918 52.02081299 51.90551758 C51.71943218 53.57051712 51.42001796 55.23587405 51.1227417 56.90161133 C49.28746539 67.14321233 47.06520563 77.04539574 44 87 C43.62082103 88.30553323 43.24287888 89.61142764 42.8671875 90.91796875 C29.04769269 136.45701268 8.01038819 180.192313 -25 215 C-26.13094666 216.32829305 -27.25632981 217.6613515 -28.375 219 C-55.69280093 250.26582811 -96.15221251 272.07029244 -136 282 C-136.80034668 282.20608887 -137.60069336 282.41217773 -138.42529297 282.62451172 C-141.15537139 283.32541695 -143.88925884 284.00905356 -146.625 284.6875 C-147.89573364 285.00992676 -147.89573364 285.00992676 -149.19213867 285.33886719 C-155.95268605 286.96697319 -161.86971402 287.4058095 -169 288 C-169 268.2 -169 248.4 -169 228 C-161.08 226.35 -153.16 224.7 -145 223 C-140.59637596 221.70226716 -136.44508392 220.43187105 -132.1875 218.8125 C-131.16180908 218.43158203 -130.13611816 218.05066406 -129.0793457 217.65820312 C-108.3149636 209.71968732 -91.942777 198.31785502 -76 183 C-75.47873535 182.5059668 -74.9574707 182.01193359 -74.42041016 181.50292969 C-66.77697462 174.24058736 -60.10706308 166.59494443 -54 158 C-53.38560059 157.13616699 -53.38560059 157.13616699 -52.75878906 156.25488281 C-19.82060664 109.43175229 -6.81152193 56.00584699 0 0 Z " fill="#010101" transform="translate(1249,854)"/>
<path d="M0 0 C55.44 0 110.88 0 168 0 C168 18.81 168 37.62 168 57 C112.56 57 57.12 57 0 57 C0 38.19 0 19.38 0 0 Z " fill="#000000" transform="translate(1343,967)"/>
<path d="M0 0 C8.58 0 17.16 0 26 0 C26 17.49 26 34.98 26 53 C17.42 53 8.84 53 0 53 C0 35.51 0 18.02 0 0 Z " fill="#0A0A0A" transform="translate(751,835)"/>
</svg>
